<?xml version="1.0" encoding="utf-8"?>
<!-- Generator: Adobe Illustrator 24.2.0, SVG Export Plug-In . SVG Version: 6.00 Build 0)  -->
<svg version="1.1" id="Layer_1" xmlns="http://www.w3.org/2000/svg" xmlns:xlink="http://www.w3.org/1999/xlink" x="0px" y="0px"
	 viewBox="0 0 1024 1024" style="enable-background:new 0 0 1024 1024;" xml:space="preserve">
<style type="text/css">
	.st0{fill:#A0B0C8;}
	.st1{fill:#8247AD;}
	.st2{font-family:'Tajawal-Bold';}
	.st3{font-size:145.9489px;}
</style>
<g>
	<g>
		<path class="st0" d="M437.46,606.41l58.11-48.11c4.57-3.96,9.25-8.05,13.79-12.31c10.91-10.24,21.46-20.86,32.25-31.23
			c4.33-4.16,9.37-7.66,13.26-12.18c20.24-23.51,40.5-47,60.16-70.99c12.24-14.93,24.32-30.15,34.86-46.29
			c11.19-17.13,21.05-35.2,30.41-53.42c9.13-17.78,16.88-36.26,25.24-54.44c-0.63-0.41-1.26-0.82-1.9-1.23
			c-1.33-1.04-2.9-1.87-3.94-3.14c-15.51-18.86-34.02-34.46-53.55-48.87c-55.42-40.89-118.04-62.73-186.19-69.31
			c-30.9-2.98-61.88-1.61-92.48,3.11c-33.91,5.23-67.05,13.95-98.76,27.45c-11.96,5.09-23.88,10.3-35.81,15.45
			c69.57-60.19,148.92-96.5,241.96-96.34c93.31,0.17,173.2,35.34,242.18,99.35c-0.57-28.37-8.09-52.13-27.15-71.84
			c-18.52-19.15-42.33-27.31-69.16-34.62c12.71-1.71,23.28-3.45,33.92-4.47c11.03-1.06,22.13-1.98,33.2-1.99
			c21.73-0.02,42.87,3.86,62.2,14.06c25.94,13.68,41.26,36.06,48.57,63.98c4.37,16.69,4.73,33.58,3.45,50.99
			c-2.31,31.42-11.94,60.63-23.31,89.4c-5.57,14.1-13.27,27.39-20.36,40.85c-6.44,12.22-13.22,24.26-20.16,36.21
			c-3.18,5.47-6.97,10.59-10.7,15.71c-4.47,6.15-9.13,12.16-13.77,18.19c-4.91,6.37-9.92,12.66-14.83,19.02
			c-4.27,5.52-8.18,11.36-12.77,16.59c-8.75,9.96-17.76,19.68-26.86,29.32c-9.49,10.05-19.14,19.94-28.85,29.78
			c-4.15,4.21-8.5,8.22-12.94,12.12c-12.12,10.65-24.03,21.56-36.58,31.67c-8.02,6.46-16.26,12.64-24.54,18.8l0.01,0
			c-26.93,21.85-49.18,36.15-63.81,44.63c0.04,0.04,0.08,0.08,0.12,0.12c-1.27,0.68-2.61,1.36-3.91,2.05
			c-9.63,5.42-15.07,7.82-15.18,7.87c-6.92,3.6-13.9,7.39-20.58,11.65c-29.98,19.09-62.4,33.14-94.98,46.66
			c-25.32,10.51-51.52,18.92-77.46,27.88c-12.14,4.19-24.49,7.84-36.94,10.97c-4,1-8.81,5.56-13.15-0.19
			C305.37,697.6,373.56,655.16,437.46,606.41z"/>
		<path class="st1" d="M818.34,386.1c-6.76-21.32-13.53-42.64-20.82-65.64c-6.25,14.17-11.74,26.61-17.22,39.06
			c-0.3,0.68-0.49,1.4-0.82,2.06c-4.19,8.37-10.98,16.47-11.86,25.16c-0.84,8.31,5.23,17.1,6.94,25.94
			c4.29,22.14,8.21,44.37,11.39,66.69"/>
		<path class="st1" d="M814.94,548.68c-11.14,16.69-20.83,32.6-31.99,47.41c-6.49,8.6-9.21,17.98-11.9,27.92
			c-3.74,13.79-8.46,27.32-13.38,42.9C785.26,630.58,803.23,591.92,814.94,548.68z"/>
		<path class="st1" d="M716.96,202.79c-68.98-64.01-148.87-99.18-242.18-99.35c-93.04-0.16-172.4,36.15-241.96,96.34
			c11.94-5.15,23.85-10.36,35.81-15.45c31.7-13.5,64.85-22.22,98.76-27.45c30.59-4.72,61.58-6.09,92.48-3.11
			c68.15,6.58,130.77,28.42,186.19,69.31c19.53,14.41,38.04,30.01,53.55,48.87c1.04,1.27,2.61,2.11,3.94,3.14
			c0.63,0.41,1.26,0.82,1.9,1.23"/>
		<path class="st0" d="M779.41,494.68c-8.66,17.31-16.92,34.96-27.18,51.31c-14.6,23.27-30.15,46.04-46.64,68.02
			c-10.83,14.43-23.76,27.33-36.23,40.47c-13.78,14.51-28.19,28.42-42.09,42.82c-1.6,1.65-1.62,4.83-2.37,7.29
			c0.72,0.07,1.44,0.14,2.15,0.2c11.41-6.92,23.11-13.4,34.16-20.86c12.82-8.65,25.49-17.63,37.46-27.42
			c10.74-8.79,20.57-18.73,30.55-28.42c9.55-9.28,19.19-18.53,28.02-28.47c7.77-8.74,15.12-18.01,21.52-27.79
			c10.39-15.87,20.23-32.12,29.61-48.61c13.11-23.07,21.84-47.96,28.18-73.65c3.22-13.07,7.15-26.2,8.19-39.51
			c1.87-23.82,2.73-47.9-7.84-70.51c-4.08-8.73-8.06-17.52-13.78-26.11c-1.97,24.53,0.63,49.22-7.47,72.8"/>
		<path class="st1" d="M150.2,448.57c3.01,46.39,12.89,91.26,32.59,133.65c0.62,1.33,0.94,2.96,1.92,3.92
			c1.34,1.32,3.18,2.12,4.8,3.15c0.11-1.97,0.83-4.14,0.25-5.88c-5.37-16.01-10.85-31.98-16.56-47.86c-1.37-3.8-1.45-5.85,3.18-6.93
			c27.81-6.5,54.25-16.8,79.84-29.38c0.63-0.31,1.41-0.32,0.95-0.22c16.36,22.65,31.6,44.71,47.92,65.93
			c8.12,10.55,18.12,19.68,27.55,29.18c1.42,1.43,4.4,1.32,6.66,1.92c-0.59-2.26-0.53-5.04-1.86-6.7
			c-15.11-18.85-30.91-37.16-45.51-56.4c-7.99-10.52-13.88-22.62-21.05-33.8c-2.73-4.26-1.84-6.2,2.35-8.65
			c7.61-4.45,15.13-9.08,22.76-13.8l0,0c26.8-14.1,43.66-32.02,43.66-32.02l0,0c6.34-5.99,12.59-11.89,18.82-17.78
			c-0.15-0.84-0.29-1.68-0.44-2.52c-2.28,0.3-5.16-0.19-6.74,1.03c-4.77,3.66-9.3,7.64-14.1,11.83
			c-8.46,7.25-44.34,29.52-44.35,29.52c-9.77,5.38-19.57,10.78-30.04,16.54c-4.48-10.41-9.23-20.24-13-30.43
			c-9.63-26.05-16.84-52.77-19.96-80.44c-0.22-1.9,1.49-5.08,3.2-5.99c35.22-18.86,65.5-44.01,92.94-72.76
			c9.52-9.97,9.39-10.12,21.34-2.5c27.28,17.39,53.09,36.74,77.12,58.4c17.99,16.21,35.83,32.6,53.44,49.23
			c7.72,7.29,14.6,15.47,22.04,23.06c1.03,1.05,3.14,1.04,4.75,1.52c-0.36-1.61-0.18-3.71-1.15-4.76
			c-17.42-18.94-34.37-38.36-52.67-56.41c-17.93-17.69-36.85-34.45-56.11-50.7c-14.46-12.2-30.15-22.94-45.29-34.34
			c-1.56-1.17-3.04-2.44-5.16-4.14c7.21-9.94,14.54-19.46,21.23-29.42c8.1-12.06,15.78-24.41,23.32-36.83
			c1.03-1.7,0.26-4.5,0.33-6.79c-1.99,1.35-4.56,2.29-5.89,4.12c-15.56,21.49-30.94,43.12-46.1,64.36
			c-15.21-8.37-28.33-16.89-42.47-23.06c-19.72-8.6-40.17-15.52-60.38-22.96c-5.32-1.96-9.44,0.39-12.86,4.71
			c-34.25,43.21-56.89,91.77-66.77,146.04C150.18,398.1,148.56,423.36,150.2,448.57z M213.98,269.94
			c-3.86,28.28-3.92,56.55-0.21,84.85c0.21,1.64-0.64,4.66-1.7,5.03c-14.23,4.89-28.59,9.43-44.88,14.68
			c9.16-40.12,23.32-74.86,45.75-106.83C213.63,269.15,214.03,269.57,213.98,269.94z M227.8,352.28
			c-3.59-36.98-0.51-72.42,7.28-107.51c0.34-1.53,4.24-3.73,5.86-3.29c30,8.05,58.02,20.71,85.35,36.97
			C297.14,308.31,265.84,334.05,227.8,352.28z M161.91,407.84c0.51-16.16,1.34-15.72,14.16-19.3c13.38-3.74,26.51-8.39,40.33-12.83
			c6.23,39.16,18.8,75.79,36.1,110.76c-0.66,0.63-0.96,1.1-1.38,1.29c-25.22,11-51.39,18.96-78.28,24.7
			c-4.59,0.98-5.76-1.97-6.28-5.1c-1.79-10.9-4.26-21.83-4.61-32.8C161.23,452.33,161.21,430.05,161.91,407.84z"/>
	</g>
	<text transform="matrix(1 0 0 1 99.0542 869.2637)" class="st1 st2 st3">ALFIFA</text>
	<text transform="matrix(1 0 0 1 544.0664 869.2598)" class="st1 st2 st3">افيفلا</text>
</g>
</svg>
